<svg width="27" height="34" viewBox="0 0 27 34" fill="none" xmlns="http://www.w3.org/2000/svg">
<path d="M8.75999 23.89C8.67999 23.89 8.6 23.88 8.52 23.87C7.92 23.79 7.41 23.41 7.16 22.87L5.89999 20.1C3.89999 18.62 2.75 16.41 2.75 14.01C2.75 9.74001 6.45 6.26001 11 6.26001C14.21 6.26001 17.14 8.02 18.47 10.75C18.98 11.76 19.25 12.86 19.25 14.01C19.25 18.17 15.74 21.58 11.36 21.75L10.1 23.27C9.76001 23.66 9.26999 23.89 8.75999 23.89ZM11 7.75C7.28 7.75 4.25 10.55 4.25 14C4.25 15.97 5.22999 17.79 6.92999 18.99C7.03999 19.07 7.12999 19.17 7.17999 19.29L8.52 22.24C8.57 22.35 8.67 22.38 8.72 22.38C8.77 22.39 8.87 22.38 8.94 22.3L10.42 20.52C10.56 20.35 10.77 20.25 11 20.25C14.72 20.25 17.75 17.45 17.75 14C17.75 13.09 17.54 12.22 17.13 11.41C16.05 9.17997 13.64 7.75 11 7.75Z" fill="white"/>
<path d="M18.2401 27.75C17.7201 27.75 17.2401 27.52 16.9001 27.12L15.6401 25.61C13.2201 25.51 10.9401 24.4 9.48008 22.6C9.25008 22.32 9.26009 21.92 9.49009 21.65L10.4201 20.53C10.5601 20.36 10.7701 20.26 11.0001 20.26C14.7201 20.26 17.7501 17.46 17.7501 14.01C17.7501 13.1 17.5401 12.23 17.1301 11.42C17.0001 11.16 17.0301 10.85 17.2101 10.62C17.3901 10.39 17.6901 10.29 17.9701 10.35C21.6701 11.2 24.2501 14.29 24.2501 17.87C24.2501 20.27 23.1001 22.48 21.1001 23.96L19.8401 26.73C19.5801 27.29 19.0701 27.67 18.4601 27.74C18.3901 27.75 18.3101 27.75 18.2401 27.75ZM11.0601 22.1C12.3101 23.37 14.1101 24.11 16.0001 24.11C16.2201 24.11 16.4301 24.21 16.5801 24.38L18.0601 26.16C18.1301 26.25 18.2201 26.26 18.2801 26.25C18.3201 26.25 18.4301 26.22 18.4901 26.1L19.8301 23.15C19.8901 23.03 19.9701 22.92 20.0801 22.85C21.7801 21.65 22.7601 19.83 22.7601 17.86C22.7601 15.46 21.2901 13.33 19.0501 12.28C19.1901 12.84 19.2601 13.41 19.2601 14C19.2601 18.16 15.7501 21.57 11.3701 21.74L11.0601 22.1Z" fill="white"/>
<path d="M13.5 14.75H8.5C8.09 14.75 7.75 14.41 7.75 14C7.75 13.59 8.09 13.25 8.5 13.25H13.5C13.91 13.25 14.25 13.59 14.25 14C14.25 14.41 13.91 14.75 13.5 14.75Z" fill="white"/>
</svg>
