<svg width="283" height="243" viewBox="0 0 283 243" fill="none" xmlns="http://www.w3.org/2000/svg">
<circle cx="174.5" cy="134.5" r="108.5" fill="#003C43"/>
<path d="M207.484 160.168C204.014 157.237 201.907 152.606 202.46 148.098C203.012 143.59 206.435 139.446 210.876 138.488C215.316 137.531 220.378 140.181 221.726 144.518C222.469 136.157 223.324 127.445 227.77 120.324C231.796 113.877 238.768 109.263 246.325 108.438C253.882 107.613 261.838 110.73 266.551 116.694C271.264 122.657 272.418 131.328 269.117 138.174C266.686 143.218 262.206 146.972 257.512 150.026C242.345 159.811 224.154 163.79 206.286 161.231L207.484 160.168Z" fill="#E3FEF7" fill-opacity="0.5"/>
<path d="M259.078 110.903C252.843 115.981 247.123 121.66 242 127.859C233.984 137.527 227.497 148.366 222.765 159.999C222.419 160.848 223.797 161.217 224.139 160.378C231.881 141.472 244.24 124.808 260.086 111.91C260.798 111.331 259.784 110.328 259.078 110.903Z" fill="white"/>
<path d="M87.2393 159.372C92.0047 155.345 94.8993 148.985 94.1402 142.793C93.3811 136.602 88.6794 130.91 82.5807 129.595C76.482 128.28 69.5299 131.92 67.6775 137.876C66.6581 126.392 65.4833 114.426 59.3767 104.646C53.8473 95.7905 44.2703 89.454 33.8909 88.3204C23.5116 87.1868 12.5835 91.4682 6.11029 99.6595C-0.362921 107.851 -1.94786 119.759 2.58581 129.163C5.9256 136.091 12.0787 141.247 18.5256 145.441C39.0934 158.823 64.6078 164.404 88.8851 160.832" fill="#77B0AA" fill-opacity="0.5"/>
<path d="M16.3742 91.7056C24.9384 98.6804 32.7952 106.481 39.8309 114.995C46.8677 123.5 53.0629 132.668 58.3293 142.369C61.2731 147.811 63.9175 153.41 66.2508 159.14C66.7265 160.306 64.8335 160.813 64.363 159.66C60.2302 149.558 55.117 139.885 49.097 130.78C43.1062 121.708 36.2494 113.238 28.6229 105.49C24.3093 101.11 19.7581 96.9703 14.9899 93.0897C14.0126 92.294 15.4049 90.9164 16.3742 91.7056L16.3742 91.7056Z" fill="white"/>
<path d="M194.528 161.645H80.8328V45.0053C80.8328 20.1893 101.025 0 125.844 0H149.517C174.336 0 194.528 20.1893 194.528 45.0053V161.645Z" fill="#E3FEF7" fill-opacity="0.5"/>
<path d="M170.855 161.645H80.8328V45.0053C80.8079 35.4964 83.8194 26.2278 89.4287 18.5489C89.6355 18.2671 89.8417 17.989 90.0544 17.7139C92.7676 14.1558 95.9964 11.0223 99.6342 8.41676C99.8396 8.26726 100.046 8.12036 100.255 7.97345C103.299 5.86721 106.592 4.1454 110.059 2.84721C110.265 2.76919 110.474 2.69102 110.684 2.61604C113.819 1.49732 117.069 0.730998 120.374 0.33123C120.579 0.303246 120.789 0.281348 120.999 0.259449C124.22 -0.0848555 127.468 -0.0848555 130.689 0.259449C130.898 0.281348 131.109 0.303243 131.316 0.331529C134.62 0.731324 137.869 1.49755 141.004 2.61606C141.213 2.69103 141.423 2.7692 141.629 2.84737C145.053 4.12918 148.307 5.8253 151.319 7.89787C151.528 8.04159 151.737 8.1885 151.944 8.3354C153.983 9.79075 155.898 11.4121 157.67 13.1829C159.091 14.6033 160.415 16.1173 161.634 17.7148C161.846 17.989 162.052 18.2672 162.258 18.5485C167.868 26.2274 170.879 35.4962 170.855 45.0053V161.645Z" fill="#77B0AA"/>
<path d="M163.534 109.477C166.287 109.477 168.518 107.245 168.518 104.493C168.518 101.741 166.287 99.51 163.534 99.51C160.782 99.51 158.551 101.741 158.551 104.493C158.551 107.245 160.782 109.477 163.534 109.477Z" fill="#0C609C"/>
<path d="M185.214 158.152H181.395L179.578 143.424L185.215 143.424L185.214 158.152Z" fill="#FFB8B8"/>
<path d="M178.667 157.061H186.032V161.697H174.03C174.03 161.088 174.15 160.486 174.383 159.923C174.616 159.36 174.958 158.849 175.388 158.419C175.819 157.988 176.33 157.647 176.893 157.414C177.455 157.181 178.058 157.061 178.667 157.061Z" fill="#2F2E41"/>
<path d="M204.215 158.152H200.396L198.579 143.424L204.216 143.424L204.215 158.152Z" fill="#FFB8B8"/>
<path d="M197.669 157.061H205.033V161.697H193.031C193.031 161.088 193.151 160.486 193.384 159.923C193.617 159.36 193.959 158.849 194.39 158.419C194.82 157.988 195.331 157.647 195.894 157.414C196.457 157.181 197.06 157.061 197.669 157.061Z" fill="#2F2E41"/>
<path d="M166.057 105.481C165.782 105.076 165.6 104.616 165.522 104.133C165.444 103.65 165.473 103.156 165.607 102.685C165.741 102.215 165.977 101.78 166.297 101.41C166.618 101.04 167.015 100.745 167.462 100.546L180.444 64.7703L186.832 68.2559L172.009 102.445C172.294 103.217 172.286 104.068 171.986 104.834C171.686 105.601 171.115 106.232 170.382 106.606C169.648 106.98 168.802 107.072 168.005 106.865C167.208 106.657 166.515 106.165 166.057 105.481Z" fill="#FFB8B8"/>
<path d="M202.265 112.203C201.84 111.96 201.474 111.626 201.193 111.226C200.911 110.826 200.721 110.369 200.635 109.888C200.549 109.406 200.57 108.912 200.695 108.439C200.821 107.967 201.049 107.527 201.363 107.152L197.342 69.3074L204.611 69.6395L206.283 106.865C206.878 107.434 207.243 108.202 207.31 109.023C207.377 109.844 207.14 110.66 206.645 111.318C206.15 111.976 205.43 112.43 204.623 112.593C203.816 112.756 202.976 112.617 202.265 112.203Z" fill="#FFB8B8"/>
<path d="M190.667 58.1436C194.893 58.1436 198.318 54.7188 198.318 50.494C198.318 46.2692 194.893 42.8443 190.667 42.8443C186.442 42.8443 183.017 46.2692 183.017 50.494C183.017 54.7188 186.442 58.1436 190.667 58.1436Z" fill="#FFB8B8"/>
<path d="M202.216 103.596H179.151L179.178 103.416C179.22 103.148 183.289 76.4945 180.288 67.7747C179.987 66.9178 180.013 65.9798 180.362 65.1412C180.711 64.3027 181.358 63.6229 182.178 63.2326H182.178C186.468 61.2127 194.703 58.7255 201.653 64.7616C202.676 65.6645 203.474 66.7928 203.986 68.0575C204.497 69.3222 204.707 70.6885 204.6 72.0484L202.216 103.596Z" fill="#344955"/>
<path d="M183.581 80.4335L173.196 78.3271L178.064 66.7939C178.355 65.6769 179.078 64.721 180.073 64.1358C181.068 63.5507 182.255 63.3841 183.373 63.6727C184.491 63.9613 185.448 64.6814 186.036 65.6751C186.624 66.6688 186.793 67.8549 186.507 68.9733L183.581 80.4335Z" fill="#344955"/>
<path d="M196.88 84.3447L196.256 70.036C195.782 67.3462 197.322 64.8034 199.691 64.3878C202.06 63.9737 204.373 65.8392 204.849 68.5488L207.195 81.9189L196.88 84.3447Z" fill="#344955"/>
<path d="M201.448 101.883C205.16 116.016 205.565 133.984 204.563 153.584L199.579 152.962L190.546 115.587L185.562 153.584L179.955 153.273C178.28 132.708 176.649 115.053 179.332 103.44L201.448 101.883Z" fill="#2F2E41"/>
<path d="M195.708 56.4059C194.281 57.926 191.631 57.11 191.445 55.0332C191.43 54.872 191.431 54.7097 191.448 54.5487C191.544 53.6288 192.075 52.7936 191.948 51.8223C191.919 51.5806 191.829 51.3502 191.686 51.153C190.549 49.6302 187.879 51.8342 186.806 50.4556C186.148 49.6103 186.921 48.2794 186.416 47.3347C185.75 46.0877 183.775 46.7028 182.537 46.02C181.159 45.2602 181.242 43.1467 182.148 41.8612C183.254 40.2935 185.194 39.4569 187.109 39.3363C189.023 39.2158 190.925 39.7334 192.713 40.43C194.744 41.2215 196.759 42.3154 198.009 44.1013C199.529 46.2731 199.675 49.1929 198.915 51.7325C198.452 53.2773 196.874 55.1645 195.708 56.4059Z" fill="#2F2E41"/>
<path d="M261.649 161.846H31.6751C31.5769 161.846 31.4829 161.806 31.4136 161.737C31.3442 161.667 31.3053 161.573 31.3053 161.475C31.3053 161.377 31.3442 161.283 31.4136 161.213C31.4829 161.144 31.5769 161.104 31.6751 161.104H261.649C261.748 161.104 261.842 161.144 261.911 161.213C261.98 161.283 262.019 161.377 262.019 161.475C262.019 161.573 261.98 161.667 261.911 161.737C261.842 161.806 261.748 161.846 261.649 161.846Z" fill="#3F3D56"/>
<path d="M146.091 127.852H105.597C105.063 127.855 104.551 127.647 104.171 127.272C103.791 126.897 103.576 126.388 103.572 125.854V35.4796C103.576 34.9463 103.791 34.4365 104.171 34.0619C104.551 33.6873 105.063 33.4786 105.597 33.4815H146.091C146.624 33.4786 147.137 33.6873 147.516 34.0619C147.896 34.4365 148.111 34.9463 148.116 35.4796V125.854C148.111 126.388 147.896 126.897 147.516 127.272C147.137 127.647 146.624 127.855 146.091 127.852Z" fill="#F0F0F0"/>
<path d="M148.116 62.7239H103.572V63.3468H148.116V62.7239Z" fill="#CCCCCC"/>
<path d="M148.271 98.2642H103.728V98.8871H148.271V98.2642Z" fill="#CCCCCC"/>
<path d="M118.212 33.4814H117.589V128.164H118.212V33.4814Z" fill="#CCCCCC"/>
<path d="M133.787 33.4814H133.164V128.164H133.787V33.4814Z" fill="#CCCCCC"/>
</svg>
