<svg width="390" height="183" viewBox="0 0 390 183" fill="none" xmlns="http://www.w3.org/2000/svg">
<path d="M396 26.5C396 111.276 303.323 180 189 180C74.6771 180 -18 111.276 -18 26.5C-18 -58.2757 74.6771 -127 189 -127C303.323 -127 396 -58.2757 396 26.5Z" fill="#77B0AA" fill-opacity="0.5"/>
<path d="M189 181.5C246.451 181.5 298.522 164.234 336.265 136.246C374.007 108.258 397.5 69.4732 397.5 26.5C397.5 -16.4732 374.007 -55.2577 336.265 -83.2458C298.522 -111.234 246.451 -128.5 189 -128.5C131.549 -128.5 79.4785 -111.234 41.7354 -83.2458C3.99255 -55.2577 -19.5 -16.4732 -19.5 26.5C-19.5 69.4732 3.99255 108.258 41.7354 136.246C79.4785 164.234 131.549 181.5 189 181.5Z" stroke="#77B0AA" stroke-opacity="0.5" stroke-width="3"/>
</svg>
