<svg width="390" height="249" viewBox="0 0 390 249" fill="none" xmlns="http://www.w3.org/2000/svg">
<path d="M402 92.5C402 177.276 309.323 246 195 246C80.6771 246 -12 177.276 -12 92.5C-12 7.72429 80.6771 -61 195 -61C309.323 -61 402 7.72429 402 92.5Z" fill="#77B0AA" fill-opacity="0.5"/>
<path d="M195 247.5C252.451 247.5 304.522 230.234 342.265 202.246C380.007 174.258 403.5 135.473 403.5 92.5C403.5 49.5268 380.007 10.7423 342.265 -17.2458C304.522 -45.234 252.451 -62.5 195 -62.5C137.549 -62.5 85.4785 -45.234 47.7354 -17.2458C9.99255 10.7423 -13.5 49.5268 -13.5 92.5C-13.5 135.473 9.99255 174.258 47.7354 202.246C85.4785 230.234 137.549 247.5 195 247.5Z" stroke="#77B0AA" stroke-opacity="0.5" stroke-width="3"/>
</svg>
