<svg width="390" height="130" viewBox="0 0 390 130" fill="none" xmlns="http://www.w3.org/2000/svg">
<path d="M450 -26.5C450 58.2757 334.713 127 192.5 127C50.2867 127 -65 58.2757 -65 -26.5C-65 -111.276 50.2867 -180 192.5 -180C334.713 -180 450 -111.276 450 -26.5Z" fill="#77B0AA" fill-opacity="0.5"/>
<path d="M192.5 128.5C263.83 128.5 328.48 111.268 375.348 83.3293C422.185 55.4093 451.5 16.6266 451.5 -26.5C451.5 -69.6266 422.185 -108.409 375.348 -136.329C328.48 -164.268 263.83 -181.5 192.5 -181.5C121.17 -181.5 56.5198 -164.268 9.65194 -136.329C-37.1846 -108.409 -66.5 -69.6266 -66.5 -26.5C-66.5 16.6266 -37.1846 55.4093 9.65194 83.3293C56.5198 111.268 121.17 128.5 192.5 128.5Z" stroke="#77B0AA" stroke-opacity="0.5" stroke-width="3"/>
</svg>
