<svg width="24" height="25" viewBox="0 0 24 25" fill="none" xmlns="http://www.w3.org/2000/svg">
<path d="M17.5999 23.0601H6.39985C4.57984 23.0601 2.91985 21.6601 2.61985 19.8601L1.28984 11.9001C1.07984 10.6601 1.67985 9.07011 2.66985 8.28011L9.59986 2.73006C10.9399 1.65006 13.0498 1.66007 14.3998 2.74007L21.3299 8.28011C22.3099 9.07011 22.9099 10.6601 22.7099 11.9001L21.3799 19.8601C21.0799 21.6301 19.3899 23.0601 17.5999 23.0601ZM11.9899 3.44008C11.4599 3.44008 10.9298 3.60005 10.5398 3.91005L3.60985 9.4601C3.03985 9.9201 2.64986 10.9401 2.76986 11.6601L4.09986 19.6201C4.27986 20.6701 5.32984 21.5601 6.39985 21.5601H17.5999C18.6699 21.5601 19.7198 20.6701 19.8998 19.6101L21.2298 11.6501C21.3498 10.9301 20.9499 9.90009 20.3899 9.45009L13.4599 3.91005C13.0599 3.60005 12.5299 3.44008 11.9899 3.44008Z" fill="black"/>
<path d="M12 16.75C10.21 16.75 8.75 15.29 8.75 13.5C8.75 11.71 10.21 10.25 12 10.25C13.79 10.25 15.25 11.71 15.25 13.5C15.25 15.29 13.79 16.75 12 16.75ZM12 11.75C11.04 11.75 10.25 12.54 10.25 13.5C10.25 14.46 11.04 15.25 12 15.25C12.96 15.25 13.75 14.46 13.75 13.5C13.75 12.54 12.96 11.75 12 11.75Z" fill="black"/>
</svg>
