<svg width="31" height="32" viewBox="0 0 31 32" fill="none" xmlns="http://www.w3.org/2000/svg">
<path fill-rule="evenodd" clip-rule="evenodd" d="M17.7578 6.24142C17.2752 5.49367 16.4442 5 15.5 5C14.5557 5 13.7247 5.49368 13.2421 6.24144C9.8673 7.23713 7.4 10.4084 7.4 14.1667V17.5321C6.83714 18.2405 6.5 19.1427 6.5 20.125C6.5 22.4032 8.31325 24.25 10.55 24.25L12.8 24.25C12.8 24.9793 13.0845 25.6788 13.5908 26.1945C14.0972 26.7103 14.7839 27 15.5 27C16.2161 27 16.9028 26.7103 17.4092 26.1945C17.9155 25.6788 18.2 24.9793 18.2 24.25L20.45 24.25C22.6868 24.25 24.5 22.4032 24.5 20.125C24.5 19.1427 24.1629 18.2405 23.6 17.5321V14.1667C23.6 10.4084 21.1327 7.23707 17.7578 6.24142ZM9.2 17.5321C9.2 17.9519 9.05854 18.359 8.79926 18.6853C8.48623 19.0793 8.3 19.5775 8.3 20.125C8.3 21.3907 9.30736 22.4167 10.55 22.4167H20.45C21.6926 22.4167 22.7 21.3907 22.7 20.125C22.7 19.5775 22.5138 19.0793 22.2007 18.6853C21.9415 18.359 21.8 17.9519 21.8 17.5321V14.1667C21.8 10.6228 18.9794 7.75 15.5 7.75C12.0206 7.75 9.2 10.6228 9.2 14.1667V17.5321ZM14.8636 24.8982C14.6948 24.7263 14.6 24.4931 14.6 24.25H16.4C16.4 24.4931 16.3052 24.7263 16.1364 24.8982C15.9676 25.0701 15.7387 25.1667 15.5 25.1667C15.2613 25.1667 15.0324 25.0701 14.8636 24.8982Z" fill="white"/>
</svg>
