<svg width="38" height="38" viewBox="0 0 38 38" fill="none" xmlns="http://www.w3.org/2000/svg">
<path d="M19 29.63C18.33 29.63 17.65 29.48 17.12 29.17L11.62 26C9.37999 24.49 9.23999 24.26 9.23999 21.89V16.11C9.23999 13.74 9.36999 13.51 11.57 12.02L17.11 8.81999C18.16 8.20999 19.81 8.20999 20.86 8.81999L26.38 12C28.62 13.51 28.76 13.74 28.76 16.11V21.88C28.76 24.25 28.63 24.48 26.43 25.97L20.89 29.17C20.35 29.48 19.67 29.63 19 29.63ZM19 9.86999C18.58 9.86999 18.17 9.94999 17.88 10.12L12.38 13.3C10.75 14.4 10.75 14.4 10.75 16.11V21.88C10.75 23.59 10.75 23.59 12.42 24.72L17.88 27.87C18.47 28.21 19.54 28.21 20.13 27.87L25.63 24.69C27.25 23.59 27.25 23.59 27.25 21.88V16.11C27.25 14.4 27.25 14.4 25.58 13.27L20.12 10.12C19.83 9.94999 19.42 9.86999 19 9.86999Z" fill="#003C43"/>
<path d="M19 22.75C16.93 22.75 15.25 21.07 15.25 19C15.25 16.93 16.93 15.25 19 15.25C21.07 15.25 22.75 16.93 22.75 19C22.75 21.07 21.07 22.75 19 22.75ZM19 16.75C17.76 16.75 16.75 17.76 16.75 19C16.75 20.24 17.76 21.25 19 21.25C20.24 21.25 21.25 20.24 21.25 19C21.25 17.76 20.24 16.75 19 16.75Z" fill="#003C43"/>
<circle cx="19" cy="19" r="17.5" stroke="#77B0AA" stroke-opacity="0.5" stroke-width="3"/>
</svg>
